<?xml version="1.0" encoding="utf-8"?>
<!-- Generator: Adobe Illustrator 21.1.0, SVG Export Plug-In . SVG Version: 6.00 Build 0)  -->
<svg version="1.1" id="Calque_1" xmlns="http://www.w3.org/2000/svg" xmlns:xlink="http://www.w3.org/1999/xlink" x="0px" y="0px"
	 viewBox="0 0 543 185" style="enable-background:new 0 0 543 185;" xml:space="preserve">
<style type="text/css">
	.st0{fill:#C97E30;}
	.st1{fill:#CA5B31;}
	.st2{fill:#CA6530;}
	.st3{fill:#CA6130;}
	.st4{fill:#C98630;}
	.st5{fill:#CA6F30;}
	.st6{fill:#CA6A30;}
	.st7{fill:#CA7330;}
	.st8{fill:#CA5431;}
	.st9{fill:#CA7830;}
	.st10{fill:#CA5731;}
	.st11{fill:#CA5031;}
</style>
<g>
	<path class="st0" d="M56,5c6.4-2.1,13.2-3,19.8-3.1c21.5-0.3,43-0.1,64.5-0.1c1.3,0,2.7,0.1,4-0.1c5.5-0.8,6.6,0,6.9,5.6
		c0.4,7.3-3.9,13.7-12.6,13.8c-13,0.2-25.9-1.5-38.9-1.3c-3.8,0.1-4.7,1-4.7,4.8c0.2,22.7,0.2,45.3,0,68c0,3.8,0.9,5.6,5,5.3
		c8.3-0.6,16.6,0.9,24.8-0.9c2.4-0.5,3.4,1.1,3.3,3.2c-0.5,9.2-2.6,15.9-13.1,14.9c-5-0.5-10,0.1-15-0.2c-3.8-0.2-5.2,0.8-5.1,4.9
		c0.3,12.8,0.4,25.7,0,38.5c-0.2,7.4-0.9,14.8-5.5,21.2c-3,4.2-8,5.7-12.6,3.5c-4.8-2.3-8.2-6.1-10.9-10.5c-1-1.6-1.4-3.7,1.3-3.5
		c7.6,0.5,8.1-5.5,8.3-9.9c0.6-13.8,0.2-27.7,0.3-41.5c0-2.4-1.4-2.5-3.2-2.6c-3.3-0.1-6.6,0.5-9.8-0.8c-4.9-1.9-7.2-5.7-7.8-10.5
		c-0.4-3.6,1-6.1,5.4-5.8c3.7,0.2,7.3-0.1,11,0.1c3.2,0.1,4.5-1,4.5-4.3c-0.1-23-0.1-46,0-69c0-4.6-2.7-3.8-5.2-3.5
		c-4.9,0.6-9.8,1.4-14.6,2.1C57.5,17.2,53.9,11.1,56,5z"/>
	<path class="st1" d="M438,174c-9,4-29.9-0.4-35.6-17.9c-4.5,2.4-10.4,3.9-15.4,4.9c0.3-1.8-0.6-3.8,0.8-5.4
		c2.5-2.9-0.1-5.5-0.8-8.6c11-2,14.1-12.2,14-22c-0.2-29.6-0.1-59.3-0.1-88.9c0-8,2.2-15.1,6.7-21.8c4.6-7,11-9.2,18.8-8.4
		c6.8,0.7,10.7,5.3,13.7,10.9c2.7,5,3.5,10.7,3.8,16.2c1.1,17.3-1.4,34.2-6.5,50.8c-4.9,15.9-10.9,31.3-17.5,46.6
		c-3.2,7.3-2,16.6,1.8,24.2c2.7,5.3,8.5,5.8,14.1,5C437.9,164.3,434,169,438,174z M419.1,94.9c2.2-1,2.4-2.3,2.7-3.6
		c1.7-8.3,3.7-16.6,5-25c1.4-9.1,2.9-18.3,2-27.5c-0.5-4.9,0.1-10.3-3.2-14.7c-0.8-1-1.2-2.5-3-2.1c-1.4,0.3-2.2,1.3-2.5,2.7
		c-0.3,1.3-0.9,2.5-1,3.8C419.1,50.5,419.1,72.4,419.1,94.9z"/>
	<path class="st2" d="M305,157.1c0-0.2,0.1-0.4,0.2-0.6c5.3-7.3,7.9-15.3,7.9-24.5c-0.2-36.5,0-72.5-0.1-109c0-2,0-2,0-6
		c0-5,4-6,8-6c10,0,10.5,3.6,10.4,12.3c-0.5,36-0.2,71.9-0.2,107.9c0,5.4,0.8,10.9,2.3,16c1.5,5.2,3.5,9.3,8.5,11.7
		c0.5,0.3,6,1,1.6,1.5c-5,0.5,5.8,9,5.4,13.5c0,0.5-6.5,1-7,1c-9.8,0-16.2-5.6-22.2-12.8c-0.4-0.5-1.1-0.5-1.5,0
		c-3.8,4.3-10.3,9.8-13.2,10.8c-0.5,0.2-1.1-0.1-1.3-0.7c-1-3.3-1.1-6.6,0.5-9.8C305.2,160.7,305.1,158.9,305,157.1z"/>
	<path class="st3" d="M335,174c0.9-5.1,4.3-9.6,8.2-14.5c4.5,0.8,8.6-0.2,12.4-2.6c3.9-2.5,4.1-4.8,0.8-7.9
		c-13-12-19.5-26.9-18.3-44.6c0.3-4.7,1.3-9.3,3.5-13.7c5.9-11.9,23.2-12.5,30.5-4.8c7.5,8,10.9,17.1,11.2,27.7
		c0.2,10.1,0.6,20.2-2.3,30c-0.9,2.9,0.4,3.3,2.5,3.3c2.2,0,4.3-0.2,6.5-0.3c0.7,3.2,1.4,6.2-1.1,9.1c-1.4,1.6,2.5,2.6,2.2,4.4
		c-3.8,0.9-3,1.1-11,2c-2,0.2-2,0-7-1c-6.2,10.1-15.7,13.2-27,14C344.8,175.1,336.3,174.4,335,174z M365.7,123.1
		c0-2.7,0.4-4.9-0.1-7c-1.4-6-0.5-12.7-5.5-17.5c-3.1-3-5-2.4-6,1.8c-2.8,12.2,0.4,23.1,7.7,33c1.6,2.2,2.2,1.7,3.1-0.5
		C366.3,129.6,365.4,126,365.7,123.1z"/>
	<path class="st4" d="M65,3c-2.1,6.1-6.6,13.9-8,20c-7.2,1.9-13.7,4.4-18.8,8.2c-9.3,7-14.3,15.7-16.7,26.3
		c-3.3,14.2-2,27.8,6.5,40.2c1.3,1.8,2.6,4,4.4,4.6c5.1,1.6,4.3,5.5,3.7,8.9c-0.7,4.4-3.9,7.8-7.8,9.5c-3,1.3-6.2,0.4-8.9-2.4
		C7.2,106,1.8,90.9,1.1,74.1c-0.8-17.7,3.4-33.9,14.6-48C22.5,17.6,31.6,12.7,41.4,9C46.1,7.2,56,4,65,3z"/>
	<path class="st5" d="M263.1,94.2c-6.6,8.8-12.9,17.9-15.4,28.9c-1.8,8-1.4,16.1-1.5,24.2c0,6.1,0,12.3,0,18.4c0,3.3,0.6,7-3.5,8.3
		c-5.1,1.6-11.3-0.6-12.7-4.9c-1.3-4-2.4-3.5-4.7-1c-1.9,2.1-4.5,3.3-7.2,4.2c0.4-5-1.4-9.6-2.1-14.4c10-7,11.6-18.8,12.5-29.7
		c1.1-13.4,0.3-26.9,0.3-40.4c0-1,0-2-0.1-3c-1-5.6,1.3-8.3,7-8c6.1,0.3,10.7,5.1,10.7,11.1c0,0.8-0.1,1.7,0,2.5
		c0.2,1.4-0.8,3.5,0.8,4.1c2,0.7,2.5-1.8,3.3-3c2.8-4.3,5-8.9,9.7-11.5C261.1,84.8,262.1,89.5,263.1,94.2z"/>
	<path class="st6" d="M258.3,93.4c-0.2-4.2-0.3-6.7-0.5-10.9c6.5-8.2,14.9-9.6,23.3-6.5c7,2.6,10.4,8.4,11.2,16
		c2,17.8,0.3,35.7,1,53.5c0.1,1.4,0,2.8-0.1,4.1c-0.2,3.4,0.8,6.4,3.8,8.2c3.5,2,6.3-0.2,9-2.2c0.1,1.9,0.3,3.9-0.6,5.7
		c-1.7,3.6-1.7,7.9-0.3,11.5c-13.4,6.3-25.8-0.4-29.3-14.3c-1.8-7-0.9-14.2-1-21.3c-0.1-12.1-0.1-24.3,0-36.4c0-3.5,0.5-7.6-2.7-9.6
		C266.9,88.2,263.3,98.2,258.3,93.4z"/>
	<path class="st7" d="M218,157c0.7,4.8,3.4,9,3,14c-9,6-28.9,2.2-31.5-8.7c-0.6-2.6-2.5-2.9-3.6-0.4C184,166,180,171,171,174
		c1.4-3.7,2.6-9.2,4.4-12.5c1.2-2.3,0.1-2.5-0.4-4.5c8-9.3,12.3-21.7,12.8-33.7c0.4-10,0-20,0.1-30c0-3.5,0.1-7-1.5-10.2
		c-1.8-3.8,0.6-5.5,3.6-6c6.9-1.3,15.9,3.1,15.6,12.2c-0.6,19.3-0.2,38.7-0.2,58c0,1.8,0,3.6,0.6,5.4C207.9,158.3,212,160,218,157z"
		/>
	<path class="st8" d="M503.1,173.9c-7.4,2.5-14.9,2.2-22.2,0.5c-3.7-0.9-7.8-1.5-10.8-4.5c1.2-7.5-0.3-14.9-0.1-22.4
		c0.1-2.4,2.6-4.7,1.8-5.9c-2.7-4.2-0.7-6.8,0.3-10.6c9-8,14.7-17.8,15.7-29.4c0.3-3.1,0.5-7.1-3.6-8.8c-4-1.6-7,0.4-8.9,3.4
		C474,98,474,98,473,101c-1.2-0.2-2.4-1.4-2.5-3.1c-0.3-5.4-1-10.8-1.5-16.2c6.2-6.1,13.7-7.1,21.8-5c8.7,2.2,13.1,8.4,14.6,16.9
		c2,11-0.9,21-6.3,30.4c-5.5,9.6-13.7,16.3-24.1,20c-3.7,1.3-3.6,2.6-1.7,5.7c6,9.8,18.3,12,27.9,8.9c0.9-0.3,1.9-0.5,2.8-0.7
		C503.2,163.2,501,168.4,503.1,173.9z"/>
	<path class="st9" d="M177,155c0,2,0.2,5.7-1,8c-1.8,3.3-0.5,6.1-2,9.9c-14,6.2-28.8-0.9-32.9-16.7c-2.9-11.1-1.7-22.5-0.6-33.8
		c1.2-11.3,3.9-22.3,6.4-33.3c2.4-10.4,8.5-12.4,16.6-10.3c3.9,1,4.4,3.2,3.3,6.3c-4.6,12.6-7.3,25.7-9,38.9
		c-1.1,8.5-1.3,17.2,0.7,25.8c0.8,3.3,2.3,6.4,5.4,8.1C169.2,160.7,174.5,157.1,177,155z"/>
	<path class="st10" d="M480,76c0.5,5.4-8.8,16.5-8.5,21.9c0.1,1.7,1.3-0.1,2.5,0.1c-2.7,9-5.5,20.1-5,29.7c0.2,3.6,1,5.3,6,1.3
		c-1,3.8-5,8.4-2.3,12.6c0.8,1.2-1.7,3.5-1.8,5.9c-0.2,7.5,3.3,17.1,2,24.5c-4-2-9.3-8-12.8-11.2c-2.2-2-3-3.2-5.7,0.1
		C449.7,166.8,441,175,433,175c0.2-5,2-10.2,0-15c7,0,12.5-10.1,16-16.5c1.6-2.8,1.3-5.9,0.9-8.8c-2.3-14.5,1.3-27.7,8.5-40
		C461.3,89.6,470,77,480,76z"/>
	<path class="st11" d="M491,175c-2.1-5.5,8.1-10.7,9-16c13-5,18.8-16.2,20.8-27.9c0.8-4.8,3.1-6.7,7.6-6.3c4,0.4,8,4.5,7.5,8.3
		c-1.9,14.6-8,26.9-20,35.9C511.8,172.2,498,177,491,175z"/>
</g>
</svg>
